<?xml version="1.0" ?>

<!-- Uploaded to: SVG Repo, www.svgrepo.com, Generator: SVG Repo Mixer Tools -->
<svg width="800px" height="800px" viewBox="0 0 96 96" version="1.1" xml:space="preserve" xmlns="http://www.w3.org/2000/svg" xmlns:xlink="http://www.w3.org/1999/xlink">

<style type="text/css">
	.st0{display:none;}
	.st1{fill:#FFFFFF;}
	.st2{fill:none;stroke:#000000;stroke-width:2;stroke-linecap:round;stroke-linejoin:round;stroke-miterlimit:10;}
	.st3{fill:#FFF8FA;}
	.st4{stroke:#000000;stroke-width:2;stroke-miterlimit:10;}
	.st5{fill:none;stroke:#000000;stroke-miterlimit:10;}
	.st6{fill:none;stroke:#000000;stroke-width:2;stroke-linecap:round;stroke-miterlimit:10;}
	.st7{fill:#231F20;stroke:#000000;stroke-width:0;stroke-miterlimit:10;}
	.st8{fill:#FF0D5C;}
	.st9{display:inline;}
	.st10{fill:none;stroke:#00D8E9;stroke-width:0.25;stroke-linecap:round;stroke-linejoin:round;stroke-miterlimit:10;}
	.st11{fill:none;stroke:#00D8E9;stroke-width:0.25;stroke-linejoin:round;stroke-miterlimit:10;}
	.st12{fill:none;stroke:#00D8E9;stroke-linecap:round;stroke-linejoin:round;stroke-miterlimit:10;}
	.st13{fill:none;stroke:#00D8E9;stroke-linejoin:round;stroke-miterlimit:10;}
</style>

<g id="banana"/>

<g id="Layer_12"/>

<g id="grape"/>

<g id="assasin"/>

<g id="gold"/>

<g id="mage_ass"/>

<g id="fighter"/>

<g id="SUPPORT"/>

<g id="marksman"/>

<g id="JUNGLE"/>

<g id="TANK"/>

<g class="st0" id="creditcard"/>

<g class="st0" id="CAKE"/>

<g class="st0" id="TOPI"/>

<g class="st0" id="SPATU"/>

<g class="st0" id="SETTING"/>

<g class="st0" id="CART"/>

<g class="st0" id="k3"/>

<g class="st0" id="computer"/>

<g class="st0" id="phone"/>

<g class="st0" id="location"/>

<g id="koper">

<g id="Layer_29"/>

<path d="M48.3,78.2c-5.5,0-10.3-6-12.7-14.9c6.8-1.3,16-2.1,25.7,0.1C58.8,72.2,53.9,78.2,48.3,78.2z M35.1,61.4   c-0.8-3.4-1.2-7.1-1.2-11H63c0,4-0.5,7.7-1.3,11.1C51.7,59.2,42.2,60,35.1,61.4z M48.2,21.5c5.2,0,10.2,5.7,12.9,14.7   c-9.9,2.1-19,1.1-25.3-0.2C38.3,27.1,43,21.5,48.2,21.5z M35.3,38c3.8,0.8,8.5,1.5,13.9,1.5c3.9,0,8.1-0.4,12.4-1.3   c0.8,3.2,1.3,6.6,1.4,10.2h-29C34,44.8,34.5,41.3,35.3,38z M31.9,50.4c0,4.1,0.5,7.9,1.2,11.4c-4.6,1-7.9,2.3-9.5,2.9   c-2.5-4.2-4-9.1-4.1-14.3H31.9z M65,50.4h11.5c-0.1,5.3-1.7,10.3-4.3,14.6c-2.8-1.3-5.7-2.2-8.5-3C64.5,58.4,65,54.5,65,50.4z    M76.4,48.4H65c-0.1-3.7-0.6-7.3-1.4-10.6c3-0.7,5.9-1.7,8.7-2.9C74.7,38.9,76.2,43.5,76.4,48.4z M71.1,33.1c-2.6,1.1-5.3,2-8,2.7   c-1.8-6.1-4.6-10.8-8-13.5C61.4,23.9,67.1,27.7,71.1,33.1z M41.5,22.1c-3.3,2.7-6,7.4-7.7,13.5c-4.2-1-7.3-2.1-8.7-2.7   C29.2,27.4,35,23.6,41.5,22.1z M24,34.6c1.2,0.5,4.6,1.8,9.4,3c-0.8,3.4-1.3,7.1-1.4,10.8H19.6C19.8,43.5,21.3,38.7,24,34.6z    M24.8,66.4c1.6-0.6,4.7-1.7,8.8-2.6c1.7,6.2,4.5,11.1,8,13.9C34.7,76,28.8,71.9,24.8,66.4z M55.3,77.4c3.4-2.8,6.1-7.6,7.8-13.5   c2.6,0.7,5.2,1.6,7.9,2.7C67.2,71.8,61.7,75.7,55.3,77.4z"/>

</g>

<g class="st0" id="guide"/>

<g id="MAGICAL"/>

<g id="phisical"/>

<g id="mango"/>

<g id="orange"/>

</svg>